<svg id="Layer" enable-background="new 0 0 64 64" height="512" viewBox="0 0 64 64" width="512" xmlns="http://www.w3.org/2000/svg"><path d="m34.77 10.17c12.05 1.53 20.58 12.55 19.06 24.6-1.53 12.05-12.55 20.58-24.6 19.06-12.05-1.53-20.58-12.55-19.06-24.6 1.53-12.05 12.55-20.58 24.6-19.06z" fill="#4dd0e1"/><g fill="#012e52"><path d="m28.979 55.814c1.017.128 2.024.19 3.023.19 11.906 0 22.273-8.877 23.812-20.985 1.656-13.129-7.671-25.167-20.794-26.833-13.125-1.659-25.168 7.67-26.834 20.792v.001c-1.657 13.131 7.671 25.169 20.793 26.835zm-16.825-26.334c1.39-10.935 11.432-18.698 22.363-17.327 10.935 1.389 18.708 11.422 17.328 22.364-1.389 10.936-11.422 18.705-22.364 17.328-10.934-1.387-18.707-11.421-17.327-22.365z"/><path d="m21.996 26.267 6.815-.36c2.641-.147 5.265.187 7.807.99l6.5 2.05c.2.063.402.093.603.093.85 0 1.638-.546 1.906-1.399.332-1.054-.252-2.177-1.306-2.509l-6.498-2.049c-3.004-.95-6.108-1.347-9.229-1.17l-6.81.36c-1.103.058-1.95 1-1.892 2.103.06 1.103 1.015 1.956 2.104 1.891z"/><path d="m41.961 32.012-5.078-1.599c-3.003-.95-6.106-1.345-9.218-1.17l-5.32.28c-1.103.058-1.95.999-1.892 2.102.058 1.104 1.022 1.961 2.102 1.892l5.326-.28c2.639-.145 5.257.187 7.799.99l5.08 1.6c.2.063.402.093.602.093.85 0 1.638-.546 1.906-1.399.332-1.054-.253-2.177-1.307-2.509z"/><path d="m39.512 39.093-3.58-1.13c-3.01-.949-6.116-1.343-9.228-1.169l-3.75.2c-1.103.059-1.95 1-1.891 2.104s1.022 1.95 2.104 1.891l3.754-.2c2.633-.148 5.26.188 7.808.99l3.58 1.13c.2.063.402.093.603.093.849 0 1.637-.545 1.906-1.398.331-1.056-.253-2.179-1.306-2.511z"/></g></svg>